<?xml version="1.0" encoding="iso-8859-1"?>
<!-- Generator: Adobe Illustrator 19.0.0, SVG Export Plug-In . SVG Version: 6.00 Build 0)  -->
<svg version="1.1" id="Layer_1" xmlns="http://www.w3.org/2000/svg" xmlns:xlink="http://www.w3.org/1999/xlink" x="0px" y="0px"
	 viewBox="0 0 512 512" style="enable-background:new 0 0 512 512;" xml:space="preserve">
<g>
	<g>
		<path d="M313.466,299.658V56.914C313.466,25.536,287.944,0,256.577,0c-31.367,0-56.889,25.536-56.889,56.914v242.745
			c-36.978,20.319-57.549,57.453-57.549,98.564C142.14,460.955,192.848,512,255.587,512c62.739,0,114.274-51.045,114.274-113.778
			C369.86,357.111,347.599,319.978,313.466,299.658z M255.257,489.244c-50.189,0-91.022-40.831-91.022-91.022
			c0-34.808,20.038-66.064,51.232-81.564c3.872-1.922,6.976-5.867,6.976-10.192V56.914c0-18.833,15.311-34.158,34.133-34.158
			s34.133,15.325,34.133,34.158v249.553c0,4.325,1.785,8.27,5.657,10.192c31.194,15.5,50.242,46.756,50.242,81.564
			C346.609,448.414,305.447,489.244,255.257,489.244z"/>
	</g>
</g>
<g>
	<g>
		<path d="M323.524,386.697H186.991c-6.283,0-11.378,5.164-11.378,11.453c0,43.911,35.728,79.681,79.644,79.681
			c43.917,0,79.644-35.789,79.644-79.7C334.902,391.842,329.807,386.697,323.524,386.697z M255.257,454.964
			c-27.472,0-50.461-19.911-55.744-45.511h111.489C305.719,435.053,282.73,454.964,255.257,454.964z"/>
	</g>
</g>
<g>
	<g>
		<path d="M172.313,105.703c-4.328-4.214-11.833-4.214-16.156,0c-1.028,1.131-1.822,2.278-2.394,3.753
			c-0.567,1.37-0.906,2.844-0.906,4.322c0,3.069,1.133,5.914,3.3,8.081c2.161,2.156,5.006,3.297,8.078,3.297
			c3.072,0,5.917-1.142,8.078-3.297c2.161-2.167,3.3-5.011,3.3-8.081C175.613,110.825,174.357,107.855,172.313,105.703z"/>
	</g>
</g>
<g>
	<g>
		<path d="M174.702,143.589c-0.572-1.475-1.366-2.622-2.389-3.753c-4.328-4.214-11.833-4.214-16.156,0
			c-1.028,1.131-1.822,2.278-2.394,3.753c-0.567,1.37-0.906,2.844-0.906,4.322c0,3.069,1.133,5.914,3.3,8.081
			c2.161,2.156,5.006,3.297,8.078,3.297c3.072,0,5.917-1.142,8.078-3.297c2.161-2.167,3.3-5.011,3.3-8.081
			C175.613,146.433,175.269,144.958,174.702,143.589z"/>
	</g>
</g>
<g>
	<g>
		<path d="M174.702,211.855c-0.572-1.475-1.367-2.622-2.389-3.753c-4.211-4.214-11.95-4.214-16.156,0
			c-1.028,1.131-1.822,2.278-2.394,3.753c-0.567,1.37-0.906,2.844-0.906,4.322c0,1.481,0.339,2.958,0.906,4.325
			c0.572,1.364,1.367,2.608,2.394,3.756c1.133,1.022,2.389,1.819,3.75,2.386c1.367,0.57,2.844,0.911,4.328,0.911
			c3.072,0,5.917-1.142,8.078-3.297c1.022-1.147,1.816-2.392,2.389-3.756c0.567-1.367,0.911-2.844,0.911-4.325
			C175.613,214.7,175.269,213.225,174.702,211.855z"/>
	</g>
</g>
<g>
	<g>
		<path d="M172.313,242.236c-4.328-4.214-11.833-4.214-16.156,0c-2.05,2.153-3.3,5.122-3.3,8.075c0,1.481,0.339,2.958,0.906,4.325
			c0.572,1.364,1.367,2.608,2.394,3.755c1.133,1.022,2.389,1.819,3.75,2.386c1.367,0.569,2.844,0.911,4.328,0.911
			c3.072,0,5.917-1.142,8.078-3.297c1.022-1.147,1.816-2.392,2.389-3.755c0.683-1.367,0.911-2.844,0.911-4.325
			C175.613,247.358,174.357,244.389,172.313,242.236z"/>
	</g>
</g>
<g>
	<g>
		<path d="M174.702,177.722c-0.572-1.475-1.366-2.622-2.389-3.753c-1.139-1.022-2.389-1.822-3.755-2.389
			c-2.734-1.147-5.917-1.147-8.65,0c-1.478,0.567-2.617,1.367-3.75,2.389c-1.028,1.131-1.822,2.386-2.394,3.753
			c-0.567,1.37-0.906,2.844-0.906,4.322c0,1.481,0.228,2.958,0.906,4.325c0.572,1.364,1.367,2.608,2.394,3.755
			c2.161,2.156,5.006,3.297,8.078,3.297c3.072,0,5.917-1.142,8.078-3.297c2.161-2.167,3.3-5.011,3.3-8.081
			C175.613,180.566,175.269,179.092,174.702,177.722z"/>
	</g>
</g>
<g>
</g>
<g>
</g>
<g>
</g>
<g>
</g>
<g>
</g>
<g>
</g>
<g>
</g>
<g>
</g>
<g>
</g>
<g>
</g>
<g>
</g>
<g>
</g>
<g>
</g>
<g>
</g>
<g>
</g>
</svg>
